<mxfile modified="2020-11-27T04:03:22.901Z" host="app.diagrams.net" agent="5.0 (Macintosh; Intel Mac OS X 10_14_6) AppleWebKit/537.36 (KHTML, like Gecko) Chrome/87.0.4280.67 Safari/537.36" etag="2KJayHQQh8IH76L0dT8_" version="13.10.3" type="github">
  <diagram id="f106602c-feb2-e66a-4537-3a34d633f6aa" name="Page-1">
    <mxGraphModel dx="2692" dy="1574" grid="1" gridSize="10" guides="1" tooltips="1" connect="1" arrows="1" fold="1" page="1" pageScale="1" pageWidth="1169" pageHeight="827" background="#ffffff" math="0" shadow="0">
      <root>
        <mxCell id="0" />
        <mxCell id="1" parent="0" />
        <mxCell id="711" value="Customer Lists Logic" style="rounded=1;absoluteArcSize=1;arcSize=2;html=1;strokeColor=none;gradientColor=none;shadow=0;dashed=0;strokeColor=none;fontSize=12;fontColor=#9E9E9E;align=left;verticalAlign=top;spacing=10;spacingTop=-4;fillColor=#E1F5FE;" parent="1" vertex="1">
          <mxGeometry x="585" y="-90" width="360" height="100" as="geometry" />
        </mxCell>
        <mxCell id="2" value="Architecture: Lifecycle &amp;gt; Fair4.0&amp;nbsp;" style="strokeColor=none;shadow=1;gradientColor=none;fontSize=14;align=left;spacingLeft=20;fontColor=#ffffff;html=1;fillColor=#97D077;" parent="1" vertex="1">
          <mxGeometry x="40" y="40" width="1000" height="40" as="geometry" />
        </mxCell>
        <mxCell id="699" value="" style="strokeColor=#dddddd;fillColor=#ffffff;shadow=1;strokeWidth=1;rounded=1;absoluteArcSize=1;arcSize=2;fontSize=10;fontColor=#9E9E9E;align=center;html=1;" parent="1" vertex="1">
          <mxGeometry x="1000" y="-20" width="150" height="60" as="geometry" />
        </mxCell>
        <mxCell id="700" value="&lt;font color=&quot;#000000&quot;&gt;Relevant Users&lt;/font&gt;&lt;br&gt;Cloud Storage" style="dashed=0;connectable=0;html=1;fillColor=#5184F3;strokeColor=none;shape=mxgraph.gcp2.hexIcon;prIcon=cloud_storage;part=1;labelPosition=right;verticalLabelPosition=middle;align=left;verticalAlign=middle;spacingLeft=5;fontColor=#999999;fontSize=12;" parent="699" vertex="1">
          <mxGeometry y="0.5" width="44" height="39" relative="1" as="geometry">
            <mxPoint x="5" y="-19.5" as="offset" />
          </mxGeometry>
        </mxCell>
        <mxCell id="2LdwyGo6ntWqwGKQ_-Yb-719" value="Architecture: User Zone&amp;nbsp;" style="fillColor=#4DA1F5;strokeColor=none;shadow=1;gradientColor=none;fontSize=14;align=left;spacingLeft=20;fontColor=#ffffff;html=1;" vertex="1" parent="1">
          <mxGeometry x="-370" y="40" width="370" height="40" as="geometry" />
        </mxCell>
        <mxCell id="2LdwyGo6ntWqwGKQ_-Yb-720" value="Load Balance Server" style="outlineConnect=0;fontColor=#232F3E;gradientColor=none;fillColor=#232F3E;strokeColor=none;dashed=0;verticalLabelPosition=bottom;verticalAlign=top;align=center;html=1;fontSize=12;fontStyle=0;aspect=fixed;pointerEvents=1;shape=mxgraph.aws4.traditional_server;" vertex="1" parent="1">
          <mxGeometry x="-160" y="130" width="43.27" height="75" as="geometry" />
        </mxCell>
        <mxCell id="2LdwyGo6ntWqwGKQ_-Yb-723" value="Net Router" style="pointerEvents=1;shadow=0;dashed=0;html=1;strokeColor=none;fillColor=#434445;aspect=fixed;labelPosition=center;verticalLabelPosition=bottom;verticalAlign=top;align=center;outlineConnect=0;shape=mxgraph.vvd.physical_upstream_router;" vertex="1" parent="1">
          <mxGeometry x="-290" y="135" width="65" height="65" as="geometry" />
        </mxCell>
        <mxCell id="2LdwyGo6ntWqwGKQ_-Yb-725" value="" style="edgeStyle=orthogonalEdgeStyle;fontSize=12;html=1;endArrow=blockThin;endFill=1;rounded=0;strokeWidth=2;endSize=4;startSize=4;dashed=0;strokeColor=#000033;" edge="1" parent="1" source="2LdwyGo6ntWqwGKQ_-Yb-723" target="2LdwyGo6ntWqwGKQ_-Yb-720">
          <mxGeometry width="100" relative="1" as="geometry">
            <mxPoint x="-260" y="240" as="sourcePoint" />
            <mxPoint x="-160" y="240" as="targetPoint" />
          </mxGeometry>
        </mxCell>
        <mxCell id="2LdwyGo6ntWqwGKQ_-Yb-729" value="Firewall" style="verticalLabelPosition=bottom;html=1;fillColor=#282828;strokeColor=none;verticalAlign=top;pointerEvents=1;align=center;shape=mxgraph.cisco_safe.security_icons.firewall;" vertex="1" parent="1">
          <mxGeometry x="-350" y="100" width="40" height="430" as="geometry" />
        </mxCell>
        <mxCell id="2LdwyGo6ntWqwGKQ_-Yb-732" value="Indicator monitoring" style="points=[[0.015,0.015,0],[0.985,0.015,0],[0.985,0.985,0],[0.015,0.985,0],[0.25,0,0],[0.5,0,0],[0.75,0,0],[1,0.25,0],[1,0.5,0],[1,0.75,0],[0.75,1,0],[0.5,1,0],[0.25,1,0],[0,0.75,0],[0,0.5,0],[0,0.25,0]];verticalLabelPosition=bottom;html=1;verticalAlign=top;aspect=fixed;align=center;pointerEvents=1;shape=mxgraph.cisco19.rect;prIcon=monitor;fillColor=#FAFAFA;strokeColor=#000033;" vertex="1" parent="1">
          <mxGeometry x="-186.79999999999998" y="432.5" width="76.8" height="60" as="geometry" />
        </mxCell>
        <mxCell id="2LdwyGo6ntWqwGKQ_-Yb-734" value="Nginx / 1&lt;br&gt;[linux]" style="shape=image;html=1;verticalAlign=top;verticalLabelPosition=bottom;labelBackgroundColor=#ffffff;imageAspect=0;aspect=fixed;image=https://cdn4.iconfinder.com/data/icons/logos-brands-5/24/nginx-128.png;strokeColor=#000033;fillColor=#97D077;align=center;" vertex="1" parent="1">
          <mxGeometry x="100" y="131" width="75" height="75" as="geometry" />
        </mxCell>
        <mxCell id="2LdwyGo6ntWqwGKQ_-Yb-735" value="Nginx / 2&lt;br&gt;[linux]" style="shape=image;html=1;verticalAlign=top;verticalLabelPosition=bottom;labelBackgroundColor=#ffffff;imageAspect=0;aspect=fixed;image=https://cdn4.iconfinder.com/data/icons/logos-brands-5/24/nginx-128.png;strokeColor=#000033;fillColor=#97D077;align=center;" vertex="1" parent="1">
          <mxGeometry x="100" y="425" width="75" height="75" as="geometry" />
        </mxCell>
        <mxCell id="2LdwyGo6ntWqwGKQ_-Yb-739" style="rounded=0;orthogonalLoop=1;jettySize=auto;html=1;strokeColor=#000033;exitX=1;exitY=0.5;exitDx=0;exitDy=0;" edge="1" parent="1" source="2LdwyGo6ntWqwGKQ_-Yb-738" target="2LdwyGo6ntWqwGKQ_-Yb-734">
          <mxGeometry relative="1" as="geometry" />
        </mxCell>
        <mxCell id="2LdwyGo6ntWqwGKQ_-Yb-741" style="rounded=0;orthogonalLoop=1;jettySize=auto;html=1;exitX=1;exitY=0.5;exitDx=0;exitDy=0;strokeColor=#000033;" edge="1" parent="1" source="2LdwyGo6ntWqwGKQ_-Yb-738" target="2LdwyGo6ntWqwGKQ_-Yb-735">
          <mxGeometry relative="1" as="geometry" />
        </mxCell>
        <mxCell id="2LdwyGo6ntWqwGKQ_-Yb-738" value="Health Check &#xa;Strategy" style="shape=module;align=center;spacingLeft=20;align=center;verticalAlign=middle;strokeColor=#000033;fillColor=none;strokeWidth=2;" vertex="1" parent="1">
          <mxGeometry x="-109.99999999999999" y="142.5" width="100" height="50" as="geometry" />
        </mxCell>
        <mxCell id="2LdwyGo6ntWqwGKQ_-Yb-742" style="edgeStyle=none;rounded=0;orthogonalLoop=1;jettySize=auto;html=1;exitX=0.5;exitY=0;exitDx=0;exitDy=0;strokeColor=#000033;" edge="1" parent="1" source="2LdwyGo6ntWqwGKQ_-Yb-735" target="2LdwyGo6ntWqwGKQ_-Yb-735">
          <mxGeometry relative="1" as="geometry" />
        </mxCell>
        <mxCell id="2LdwyGo6ntWqwGKQ_-Yb-807" style="edgeStyle=none;rounded=0;orthogonalLoop=1;jettySize=auto;html=1;entryX=0;entryY=0.5;entryDx=0;entryDy=0;strokeColor=#000033;exitX=1;exitY=0.5;exitDx=0;exitDy=0;" edge="1" parent="1" source="2LdwyGo6ntWqwGKQ_-Yb-743" target="2LdwyGo6ntWqwGKQ_-Yb-799">
          <mxGeometry relative="1" as="geometry" />
        </mxCell>
        <mxCell id="2LdwyGo6ntWqwGKQ_-Yb-808" style="edgeStyle=none;rounded=0;orthogonalLoop=1;jettySize=auto;html=1;exitX=1;exitY=0.5;exitDx=0;exitDy=0;entryX=0;entryY=0.5;entryDx=0;entryDy=0;strokeColor=#000033;" edge="1" parent="1" source="2LdwyGo6ntWqwGKQ_-Yb-743" target="2LdwyGo6ntWqwGKQ_-Yb-780">
          <mxGeometry relative="1" as="geometry" />
        </mxCell>
        <mxCell id="2LdwyGo6ntWqwGKQ_-Yb-743" value="ADDR_HASH" style="shape=module;align=center;spacingLeft=20;align=center;verticalAlign=middle;strokeColor=#000033;fillColor=none;strokeWidth=2;" vertex="1" parent="1">
          <mxGeometry x="175" y="290" width="100" height="50" as="geometry" />
        </mxCell>
        <mxCell id="2LdwyGo6ntWqwGKQ_-Yb-768" value="Redis / master&lt;br&gt;[linux]" style="shape=image;html=1;verticalAlign=top;verticalLabelPosition=bottom;labelBackgroundColor=#ffffff;imageAspect=0;aspect=fixed;image=https://cdn4.iconfinder.com/data/icons/logos-brands-5/24/redis-128.png;strokeColor=#000033;strokeWidth=2;fillColor=none;align=center;" vertex="1" parent="1">
          <mxGeometry x="385" y="277.5" width="65" height="65" as="geometry" />
        </mxCell>
        <mxCell id="2LdwyGo6ntWqwGKQ_-Yb-769" value="Redis / slaver&lt;br&gt;[linux]" style="shape=image;html=1;verticalAlign=top;verticalLabelPosition=bottom;labelBackgroundColor=#ffffff;imageAspect=0;aspect=fixed;image=https://cdn4.iconfinder.com/data/icons/logos-brands-5/24/redis-128.png;strokeColor=#000033;strokeWidth=2;fillColor=none;align=center;" vertex="1" parent="1">
          <mxGeometry x="515" y="277.5" width="65" height="65" as="geometry" />
        </mxCell>
        <mxCell id="2LdwyGo6ntWqwGKQ_-Yb-780" value="" style="rounded=1;absoluteArcSize=1;arcSize=2;html=1;strokeColor=none;gradientColor=none;shadow=0;dashed=0;strokeColor=none;fontSize=12;fontColor=#9E9E9E;align=left;verticalAlign=top;spacing=10;spacingTop=-4;fillColor=#E1F5FE;" vertex="1" parent="1">
          <mxGeometry x="360" y="414" width="450" height="126" as="geometry" />
        </mxCell>
        <mxCell id="2LdwyGo6ntWqwGKQ_-Yb-782" value="" style="outlineConnect=0;fontColor=#232F3E;gradientColor=none;strokeColor=#ffffff;fillColor=#232F3E;dashed=0;verticalLabelPosition=middle;verticalAlign=bottom;align=center;html=1;whiteSpace=wrap;fontSize=10;fontStyle=1;spacing=3;shape=mxgraph.aws4.productIcon;prIcon=mxgraph.aws4.ec2;" vertex="1" parent="1">
          <mxGeometry x="380" y="434" width="70" height="65" as="geometry" />
        </mxCell>
        <mxCell id="2LdwyGo6ntWqwGKQ_-Yb-783" value="Crane / 2" style="text;html=1;align=center;verticalAlign=middle;resizable=0;points=[];autosize=1;" vertex="1" parent="1">
          <mxGeometry x="385" y="500" width="60" height="20" as="geometry" />
        </mxCell>
        <mxCell id="2LdwyGo6ntWqwGKQ_-Yb-784" value="" style="outlineConnect=0;fontColor=#232F3E;gradientColor=none;strokeColor=#ffffff;fillColor=#232F3E;dashed=0;verticalLabelPosition=middle;verticalAlign=bottom;align=center;html=1;whiteSpace=wrap;fontSize=10;fontStyle=1;spacing=3;shape=mxgraph.aws4.productIcon;prIcon=mxgraph.aws4.ec2;" vertex="1" parent="1">
          <mxGeometry x="510" y="434" width="70" height="66" as="geometry" />
        </mxCell>
        <mxCell id="2LdwyGo6ntWqwGKQ_-Yb-785" value="Portal / 2" style="text;html=1;align=center;verticalAlign=middle;resizable=0;points=[];autosize=1;" vertex="1" parent="1">
          <mxGeometry x="515" y="500" width="60" height="20" as="geometry" />
        </mxCell>
        <mxCell id="2LdwyGo6ntWqwGKQ_-Yb-789" value="[windows]" style="text;html=1;align=center;verticalAlign=middle;resizable=0;points=[];autosize=1;" vertex="1" parent="1">
          <mxGeometry x="510" y="540" width="70" height="20" as="geometry" />
        </mxCell>
        <mxCell id="2LdwyGo6ntWqwGKQ_-Yb-793" value="" style="shape=image;html=1;verticalAlign=top;verticalLabelPosition=bottom;labelBackgroundColor=#ffffff;imageAspect=0;aspect=fixed;image=https://cdn0.iconfinder.com/data/icons/web-development-and-studio/512/41_statistics_Analysis_analytics_business_chart_graph_market-128.png;strokeColor=#000033;strokeWidth=2;fillColor=none;align=center;" vertex="1" parent="1">
          <mxGeometry x="627" y="434" width="76" height="76" as="geometry" />
        </mxCell>
        <mxCell id="2LdwyGo6ntWqwGKQ_-Yb-798" value="IBI / 2" style="text;html=1;align=center;verticalAlign=middle;resizable=0;points=[];autosize=1;" vertex="1" parent="1">
          <mxGeometry x="640" y="500" width="50" height="20" as="geometry" />
        </mxCell>
        <mxCell id="2LdwyGo6ntWqwGKQ_-Yb-799" value="" style="rounded=1;absoluteArcSize=1;arcSize=2;html=1;strokeColor=none;gradientColor=none;shadow=0;dashed=0;strokeColor=none;fontSize=12;fontColor=#9E9E9E;align=left;verticalAlign=top;spacing=10;spacingTop=-4;fillColor=#E1F5FE;" vertex="1" parent="1">
          <mxGeometry x="360" y="110" width="450" height="130" as="geometry" />
        </mxCell>
        <mxCell id="2LdwyGo6ntWqwGKQ_-Yb-800" value="" style="outlineConnect=0;fontColor=#232F3E;gradientColor=none;strokeColor=#ffffff;fillColor=#232F3E;dashed=0;verticalLabelPosition=middle;verticalAlign=bottom;align=center;html=1;whiteSpace=wrap;fontSize=10;fontStyle=1;spacing=3;shape=mxgraph.aws4.productIcon;prIcon=mxgraph.aws4.ec2;" vertex="1" parent="1">
          <mxGeometry x="380" y="130" width="70" height="65" as="geometry" />
        </mxCell>
        <mxCell id="2LdwyGo6ntWqwGKQ_-Yb-801" value="Crane / 1" style="text;html=1;align=center;verticalAlign=middle;resizable=0;points=[];autosize=1;" vertex="1" parent="1">
          <mxGeometry x="385" y="196" width="60" height="20" as="geometry" />
        </mxCell>
        <mxCell id="2LdwyGo6ntWqwGKQ_-Yb-802" value="" style="outlineConnect=0;fontColor=#232F3E;gradientColor=none;strokeColor=#ffffff;fillColor=#232F3E;dashed=0;verticalLabelPosition=middle;verticalAlign=bottom;align=center;html=1;whiteSpace=wrap;fontSize=10;fontStyle=1;spacing=3;shape=mxgraph.aws4.productIcon;prIcon=mxgraph.aws4.ec2;" vertex="1" parent="1">
          <mxGeometry x="510" y="130" width="70" height="66" as="geometry" />
        </mxCell>
        <mxCell id="2LdwyGo6ntWqwGKQ_-Yb-803" value="Portal / 1" style="text;html=1;align=center;verticalAlign=middle;resizable=0;points=[];autosize=1;" vertex="1" parent="1">
          <mxGeometry x="515" y="196" width="60" height="20" as="geometry" />
        </mxCell>
        <mxCell id="2LdwyGo6ntWqwGKQ_-Yb-804" value="[windows]" style="text;html=1;align=center;verticalAlign=middle;resizable=0;points=[];autosize=1;" vertex="1" parent="1">
          <mxGeometry x="510" y="90" width="70" height="20" as="geometry" />
        </mxCell>
        <mxCell id="2LdwyGo6ntWqwGKQ_-Yb-805" value="" style="shape=image;html=1;verticalAlign=top;verticalLabelPosition=bottom;labelBackgroundColor=#ffffff;imageAspect=0;aspect=fixed;image=https://cdn0.iconfinder.com/data/icons/web-development-and-studio/512/41_statistics_Analysis_analytics_business_chart_graph_market-128.png;strokeColor=#000033;strokeWidth=2;fillColor=none;align=center;" vertex="1" parent="1">
          <mxGeometry x="627" y="130" width="76" height="76" as="geometry" />
        </mxCell>
        <mxCell id="2LdwyGo6ntWqwGKQ_-Yb-806" value="IBI / 1" style="text;html=1;align=center;verticalAlign=middle;resizable=0;points=[];autosize=1;" vertex="1" parent="1">
          <mxGeometry x="640" y="196" width="50" height="20" as="geometry" />
        </mxCell>
        <mxCell id="2LdwyGo6ntWqwGKQ_-Yb-812" value="Oracle&lt;br&gt;[windows]" style="outlineConnect=0;fontColor=#232F3E;gradientColor=none;strokeColor=#232F3E;fillColor=#ffffff;dashed=0;verticalLabelPosition=bottom;verticalAlign=top;align=center;html=1;fontSize=12;fontStyle=0;aspect=fixed;shape=mxgraph.aws4.resourceIcon;resIcon=mxgraph.aws4.oracle_db_instance;" vertex="1" parent="1">
          <mxGeometry x="627" y="277.5" width="75" height="75" as="geometry" />
        </mxCell>
        <mxCell id="2LdwyGo6ntWqwGKQ_-Yb-813" value="Customer Lists Logic" style="rounded=1;absoluteArcSize=1;arcSize=2;html=1;strokeColor=none;gradientColor=none;shadow=0;dashed=0;strokeColor=none;fontSize=12;fontColor=#9E9E9E;align=left;verticalAlign=top;spacing=10;spacingTop=-4;fillColor=#E1F5FE;" vertex="1" parent="1">
          <mxGeometry x="595" y="-80" width="360" height="100" as="geometry" />
        </mxCell>
        <mxCell id="2LdwyGo6ntWqwGKQ_-Yb-815" value="Oracle Back" style="shape=process;whiteSpace=wrap;html=1;backgroundOutline=1;strokeColor=#000033;strokeWidth=2;fillColor=none;align=center;" vertex="1" parent="1">
          <mxGeometry x="730" y="138" width="70" height="62" as="geometry" />
        </mxCell>
        <mxCell id="2LdwyGo6ntWqwGKQ_-Yb-816" value="Oracle&lt;br&gt;Back" style="shape=process;whiteSpace=wrap;html=1;backgroundOutline=1;strokeColor=#000033;strokeWidth=2;fillColor=none;align=center;" vertex="1" parent="1">
          <mxGeometry x="730" y="448" width="70" height="62" as="geometry" />
        </mxCell>
      </root>
    </mxGraphModel>
  </diagram>
</mxfile>
